<svg width="315" height="56" viewBox="0 0 315 56" fill="none" xmlns="http://www.w3.org/2000/svg">
<path d="M34.918 46.7734V55H7.67188V46.7734H34.918ZM11.1172 3.8125V55H0.570312V3.8125H11.1172ZM31.3672 24.6602V32.6758H7.67188V24.6602H31.3672ZM34.8828 3.8125V12.0742H7.67188V3.8125H34.8828ZM50.5625 0.964844V55H40.4375V0.964844H50.5625ZM74.5391 16.9609L58.0156 35.8047L49.1562 44.7695L45.4648 37.457L52.4961 28.5273L62.375 16.9609H74.5391ZM64.0273 55L52.7773 37.4219L59.7734 31.3047L75.6992 55H64.0273ZM77.2812 36.3672V35.6289C77.2812 32.8398 77.6797 30.2734 78.4766 27.9297C79.2734 25.5625 80.4336 23.5117 81.957 21.7773C83.4805 20.043 85.3555 18.6953 87.582 17.7344C89.8086 16.75 92.3633 16.2578 95.2461 16.2578C98.1289 16.2578 100.695 16.75 102.945 17.7344C105.195 18.6953 107.082 20.043 108.605 21.7773C110.152 23.5117 111.324 25.5625 112.121 27.9297C112.918 30.2734 113.316 32.8398 113.316 35.6289V36.3672C113.316 39.1328 112.918 41.6992 112.121 44.0664C111.324 46.4102 110.152 48.4609 108.605 50.2188C107.082 51.9531 105.207 53.3008 102.98 54.2617C100.754 55.2227 98.1992 55.7031 95.3164 55.7031C92.4336 55.7031 89.8672 55.2227 87.6172 54.2617C85.3906 53.3008 83.5039 51.9531 81.957 50.2188C80.4336 48.4609 79.2734 46.4102 78.4766 44.0664C77.6797 41.6992 77.2812 39.1328 77.2812 36.3672ZM87.4062 35.6289V36.3672C87.4062 37.9609 87.5469 39.4492 87.8281 40.832C88.1094 42.2148 88.5547 43.4336 89.1641 44.4883C89.7969 45.5195 90.6172 46.3281 91.625 46.9141C92.6328 47.5 93.8633 47.793 95.3164 47.793C96.7227 47.793 97.9297 47.5 98.9375 46.9141C99.9453 46.3281 100.754 45.5195 101.363 44.4883C101.973 43.4336 102.418 42.2148 102.699 40.832C103.004 39.4492 103.156 37.9609 103.156 36.3672V35.6289C103.156 34.082 103.004 32.6289 102.699 31.2695C102.418 29.8867 101.961 28.668 101.328 27.6133C100.719 26.5352 99.9102 25.6914 98.9023 25.082C97.8945 24.4727 96.6758 24.168 95.2461 24.168C93.8164 24.168 92.5977 24.4727 91.5898 25.082C90.6055 25.6914 89.7969 26.5352 89.1641 27.6133C88.5547 28.668 88.1094 29.8867 87.8281 31.2695C87.5469 32.6289 87.4062 34.082 87.4062 35.6289ZM129.453 25.082V55H119.328V16.9609H128.82L129.453 25.082ZM127.977 34.6445H125.234C125.234 31.832 125.598 29.3008 126.324 27.0508C127.051 24.7773 128.07 22.8438 129.383 21.25C130.695 19.6328 132.254 18.4023 134.059 17.5586C135.887 16.6914 137.926 16.2578 140.176 16.2578C141.957 16.2578 143.586 16.5156 145.062 17.0312C146.539 17.5469 147.805 18.3672 148.859 19.4922C149.938 20.6172 150.758 22.1055 151.32 23.957C151.906 25.8086 152.199 28.0703 152.199 30.7422V55H142.004V30.707C142.004 29.0195 141.77 27.707 141.301 26.7695C140.832 25.832 140.141 25.1758 139.227 24.8008C138.336 24.4023 137.234 24.2031 135.922 24.2031C134.562 24.2031 133.379 24.4727 132.371 25.0117C131.387 25.5508 130.566 26.3008 129.91 27.2617C129.277 28.1992 128.797 29.3008 128.469 30.5664C128.141 31.832 127.977 33.1914 127.977 34.6445ZM158.281 36.3672V35.6289C158.281 32.8398 158.68 30.2734 159.477 27.9297C160.273 25.5625 161.434 23.5117 162.957 21.7773C164.48 20.043 166.355 18.6953 168.582 17.7344C170.809 16.75 173.363 16.2578 176.246 16.2578C179.129 16.2578 181.695 16.75 183.945 17.7344C186.195 18.6953 188.082 20.043 189.605 21.7773C191.152 23.5117 192.324 25.5625 193.121 27.9297C193.918 30.2734 194.316 32.8398 194.316 35.6289V36.3672C194.316 39.1328 193.918 41.6992 193.121 44.0664C192.324 46.4102 191.152 48.4609 189.605 50.2188C188.082 51.9531 186.207 53.3008 183.98 54.2617C181.754 55.2227 179.199 55.7031 176.316 55.7031C173.434 55.7031 170.867 55.2227 168.617 54.2617C166.391 53.3008 164.504 51.9531 162.957 50.2188C161.434 48.4609 160.273 46.4102 159.477 44.0664C158.68 41.6992 158.281 39.1328 158.281 36.3672ZM168.406 35.6289V36.3672C168.406 37.9609 168.547 39.4492 168.828 40.832C169.109 42.2148 169.555 43.4336 170.164 44.4883C170.797 45.5195 171.617 46.3281 172.625 46.9141C173.633 47.5 174.863 47.793 176.316 47.793C177.723 47.793 178.93 47.5 179.938 46.9141C180.945 46.3281 181.754 45.5195 182.363 44.4883C182.973 43.4336 183.418 42.2148 183.699 40.832C184.004 39.4492 184.156 37.9609 184.156 36.3672V35.6289C184.156 34.082 184.004 32.6289 183.699 31.2695C183.418 29.8867 182.961 28.668 182.328 27.6133C181.719 26.5352 180.91 25.6914 179.902 25.082C178.895 24.4727 177.676 24.168 176.246 24.168C174.816 24.168 173.598 24.4727 172.59 25.082C171.605 25.6914 170.797 26.5352 170.164 27.6133C169.555 28.668 169.109 29.8867 168.828 31.2695C168.547 32.6289 168.406 34.082 168.406 35.6289ZM302.984 50.1133C302.984 48.6133 303.5 47.3594 304.531 46.3516C305.586 45.3438 306.98 44.8398 308.715 44.8398C310.449 44.8398 311.832 45.3438 312.863 46.3516C313.918 47.3594 314.445 48.6133 314.445 50.1133C314.445 51.6133 313.918 52.8672 312.863 53.875C311.832 54.8828 310.449 55.3867 308.715 55.3867C306.98 55.3867 305.586 54.8828 304.531 53.875C303.5 52.8672 302.984 51.6133 302.984 50.1133Z" fill="#0C6894"/>
<path d="M205.988 3.8125H214.918L228.066 41.3945L241.215 3.8125H250.145L231.652 55H224.48L205.988 3.8125ZM201.172 3.8125H210.066L211.684 40.4453V55H201.172V3.8125ZM246.066 3.8125H254.996V55H244.449V40.4453L246.066 3.8125ZM281.117 55.7031C278.164 55.7031 275.516 55.2344 273.172 54.2969C270.828 53.3359 268.836 52.0117 267.195 50.3242C265.578 48.6367 264.336 46.6797 263.469 44.4531C262.602 42.2031 262.168 39.8125 262.168 37.2812V35.875C262.168 32.9922 262.578 30.3555 263.398 27.9648C264.219 25.5742 265.391 23.5 266.914 21.7422C268.461 19.9844 270.336 18.6367 272.539 17.6992C274.742 16.7383 277.227 16.2578 279.992 16.2578C282.688 16.2578 285.078 16.7031 287.164 17.5938C289.25 18.4844 290.996 19.75 292.402 21.3906C293.832 23.0312 294.91 25 295.637 27.2969C296.363 29.5703 296.727 32.1016 296.727 34.8906V39.1094H266.492V32.3594H286.777V31.5859C286.777 30.1797 286.52 28.9258 286.004 27.8242C285.512 26.6992 284.762 25.8086 283.754 25.1523C282.746 24.4961 281.457 24.168 279.887 24.168C278.551 24.168 277.402 24.4609 276.441 25.0469C275.48 25.6328 274.695 26.4531 274.086 27.5078C273.5 28.5625 273.055 29.8047 272.75 31.2344C272.469 32.6406 272.328 34.1875 272.328 35.875V37.2812C272.328 38.8047 272.539 40.2109 272.961 41.5C273.406 42.7891 274.027 43.9023 274.824 44.8398C275.645 45.7773 276.629 46.5039 277.777 47.0195C278.949 47.5352 280.273 47.793 281.75 47.793C283.578 47.793 285.277 47.4414 286.848 46.7383C288.441 46.0117 289.812 44.9219 290.961 43.4688L295.883 48.8125C295.086 49.9609 293.996 51.0625 292.613 52.1172C291.254 53.1719 289.613 54.0391 287.691 54.7188C285.77 55.375 283.578 55.7031 281.117 55.7031Z" fill="#FF577F"/>
</svg>
